<svg width="9" height="9" viewBox="0 0 9 9" fill="none" xmlns="http://www.w3.org/2000/svg">
<path d="M1.43307 4.50241C1.43307 4.37815 1.5338 4.27741 1.65807 4.27741L4.14903 4.27741L4.14903 1.78645C4.14903 1.66219 4.24977 1.56145 4.37403 1.56145C4.4983 1.56145 4.59903 1.66219 4.59903 1.78645L4.59903 4.27741L7.09005 4.27741C7.21431 4.27741 7.31505 4.37815 7.31505 4.50241C7.31505 4.62667 7.21431 4.72741 7.09005 4.72741H4.59903L4.59903 7.21843C4.59903 7.3427 4.4983 7.44343 4.37403 7.44343C4.24977 7.44343 4.14903 7.3427 4.14903 7.21843L4.14903 4.72741L1.65807 4.72741C1.5338 4.72741 1.43307 4.62667 1.43307 4.50241Z" fill="url(#paint0_linear_10500_4302)"/>
<defs>
<linearGradient id="paint0_linear_10500_4302" x1="1.76949" y1="2.33401" x2="6.54246" y2="7.10698" gradientUnits="userSpaceOnUse">
<stop stop-color="#AAAAAA"/>
<stop offset="1" stop-color="white"/>
</linearGradient>
</defs>
</svg>
