<svg width="7" height="7" viewBox="0 0 7 7" fill="none" xmlns="http://www.w3.org/2000/svg">
<g clip-path="url(#clip0_10500_4255)">
<path fill-rule="evenodd" clip-rule="evenodd" d="M1.6323 0.559177C1.66966 0.521499 1.72046 0.500249 1.77354 0.500071L4.47372 0.5C4.5331 0.500134 4.5894 0.526651 4.6273 0.57232L6.12728 2.37207C6.1571 2.40818 6.17331 2.45362 6.17304 2.5005V6.30068C6.17286 6.35348 6.15179 6.40406 6.11447 6.44143C6.07711 6.47875 6.02653 6.49982 5.97371 6.5H1.77354C1.72074 6.49982 1.67016 6.47875 1.63279 6.44143C1.59547 6.40407 1.5744 6.35349 1.57422 6.30068V0.700867C1.57404 0.647792 1.59489 0.596811 1.6323 0.559177ZM4.27305 0.900157H1.97434V6.10134H5.77303V2.70135H4.47385C4.36278 2.70175 4.2726 2.61163 4.27305 2.50056V0.900157ZM4.67316 1.25279V2.30123H5.54674L4.67316 1.25279Z" fill="#6C6F78"/>
<path d="M2.87108 3.49902C2.81804 3.49925 2.76724 3.52054 2.72991 3.55817C2.69255 3.59581 2.67165 3.64679 2.67188 3.69983C2.67206 3.7526 2.69313 3.80313 2.73045 3.84046C2.76777 3.87778 2.8183 3.89885 2.87107 3.89903H4.87185C4.92461 3.89885 4.97515 3.87778 5.01247 3.84046C5.04979 3.80314 5.07087 3.7526 5.07104 3.69983C5.07127 3.6468 5.05037 3.59581 5.01301 3.55817C4.97569 3.52054 4.92489 3.49925 4.87185 3.49902H2.87108ZM2.87108 4.29941C2.81804 4.29964 2.76724 4.32089 2.72991 4.35856C2.69255 4.3962 2.67165 4.44718 2.67188 4.50022C2.67206 4.55299 2.69313 4.60352 2.73045 4.64085C2.76777 4.67817 2.8183 4.69924 2.87107 4.69942H4.87185C4.92461 4.69924 4.97515 4.67817 5.01247 4.64085C5.0498 4.60353 5.07087 4.55299 5.07104 4.50022C5.07127 4.44718 5.05037 4.3962 5.01301 4.35856C4.97569 4.32089 4.92489 4.29964 4.87185 4.29941H2.87108Z" fill="#6C6F78"/>
</g>
<defs>
<clipPath id="clip0_10500_4255">
<rect width="6" height="6" fill="white" transform="translate(0.875 0.5)"/>
</clipPath>
</defs>
</svg>
