<svg width="9" height="9" viewBox="0 0 9 9" fill="none" xmlns="http://www.w3.org/2000/svg">
<path fill-rule="evenodd" clip-rule="evenodd" d="M1.875 3.10009C1.875 2.21612 2.5916 1.49951 3.47558 1.49951H6.27441C7.15839 1.49951 7.875 2.21612 7.875 3.10009V5.89893C7.875 6.78291 7.15839 7.49951 6.27441 7.49951H4.875C4.7639 7.49951 4.67383 7.40945 4.67383 7.29835C4.67383 7.18724 4.7639 7.09718 4.875 7.09718H6.27441C6.93619 7.09718 7.47266 6.5607 7.47266 5.89893V3.10009C7.47266 2.43832 6.93619 1.90184 6.27441 1.90184H3.47558C2.81381 1.90184 2.27733 2.43832 2.27733 3.10009V6.81269L4.73919 4.35082H3.41436C3.30326 4.35082 3.21319 4.26076 3.21319 4.14966C3.21319 4.03856 3.30326 3.94849 3.41436 3.94849H5.22485C5.33595 3.94849 5.42602 4.03856 5.42602 4.14966V5.96015C5.42602 6.07125 5.33595 6.16132 5.22485 6.16132C5.11375 6.16132 5.02369 6.07125 5.02369 5.96015V4.63532L2.36772 7.29128C2.18589 7.47311 1.875 7.34433 1.875 7.08719V3.10009Z" fill="url(#paint0_linear_10500_4308)"/>
<defs>
<linearGradient id="paint0_linear_10500_4308" x1="4.60085" y1="1.49951" x2="4.60085" y2="7.49951" gradientUnits="userSpaceOnUse">
<stop stop-color="#AAAAAA"/>
<stop offset="1" stop-color="white"/>
</linearGradient>
</defs>
</svg>
