<svg width="9" height="9" viewBox="0 0 9 9" fill="none" xmlns="http://www.w3.org/2000/svg">
<g clip-path="url(#clip0_10500_4297)">
<path fill-rule="evenodd" clip-rule="evenodd" d="M1.63672 2.76256C1.63862 2.72382 1.6511 2.68632 1.6728 2.65417C1.69449 2.62196 1.72465 2.59629 1.75994 2.58006L4.79833 1.27724C4.84814 1.25589 4.90453 1.25589 4.95434 1.27724L7.99286 2.58012C8.02821 2.59574 8.0583 2.62121 8.07962 2.6535C8.1009 2.6858 8.11246 2.72365 8.11291 2.76232L8.11291 6.23653C8.11287 6.27534 8.1014 6.31332 8.07994 6.3456C8.0585 6.37796 8.02799 6.40335 7.9923 6.4185L4.95216 7.72143C4.90257 7.74276 4.84636 7.74275 4.79681 7.72142L1.7567 6.4185C1.72109 6.40326 1.69077 6.37789 1.66942 6.34553C1.64808 6.31319 1.63672 6.27532 1.63672 6.23655V2.76256ZM2.03278 6.10609L4.67691 7.2393V4.19549L2.03278 3.06223V6.10609ZM2.33747 2.76212L4.8749 3.84983L7.41233 2.76212L4.8749 1.6746L2.33747 2.76212ZM5.07289 7.2393L7.71702 6.10609V3.06223L5.07289 4.19544V7.2393Z" fill="url(#paint0_linear_10500_4297)"/>
</g>
<defs>
<linearGradient id="paint0_linear_10500_4297" x1="4.57891" y1="1.26123" x2="4.57891" y2="7.73742" gradientUnits="userSpaceOnUse">
<stop stop-color="#AAAAAA"/>
<stop offset="1" stop-color="white"/>
</linearGradient>
<clipPath id="clip0_10500_4297">
<rect width="8" height="8" fill="white" transform="translate(0.875 0.499512)"/>
</clipPath>
</defs>
</svg>
