<svg width="9" height="9" viewBox="0 0 9 9" fill="none" xmlns="http://www.w3.org/2000/svg">
<path fill-rule="evenodd" clip-rule="evenodd" d="M6.06391 6.1092C5.98772 6.18539 5.86418 6.18539 5.78799 6.1092C5.7118 6.033 5.7118 5.90947 5.78799 5.83328L6.92738 4.69389H3.4012C3.29396 4.69389 3.20703 4.60696 3.20703 4.49972C3.20703 4.39249 3.29396 4.30556 3.4012 4.30556H6.92748L5.78799 3.16607C5.7118 3.08988 5.7118 2.96634 5.78799 2.89015C5.86418 2.81396 5.98772 2.81396 6.06391 2.89015L7.4435 4.26974C7.57048 4.39673 7.57048 4.60262 7.4435 4.72961L6.06391 6.1092Z" fill="url(#paint0_linear_10500_4313)"/>
<path fill-rule="evenodd" clip-rule="evenodd" d="M1.375 2.02618C1.375 1.73531 1.6108 1.49951 1.90167 1.49951H3.235C3.34177 1.49951 3.42833 1.58607 3.42833 1.69285C3.42833 1.79962 3.34177 1.88618 3.235 1.88618H1.90167C1.82435 1.88618 1.76167 1.94886 1.76167 2.02618V6.97285C1.76167 7.05017 1.82435 7.11285 1.90167 7.11285H3.235C3.34177 7.11285 3.42833 7.1994 3.42833 7.30618C3.42833 7.41295 3.34177 7.49951 3.235 7.49951H1.90167C1.6108 7.49951 1.375 7.26372 1.375 6.97285V2.02618Z" fill="url(#paint1_linear_10500_4313)"/>
<defs>
<linearGradient id="paint0_linear_10500_4313" x1="5.17497" y1="2.83301" x2="5.17497" y2="6.16634" gradientUnits="userSpaceOnUse">
<stop stop-color="#AAAAAA"/>
<stop offset="1" stop-color="white"/>
</linearGradient>
<linearGradient id="paint1_linear_10500_4313" x1="2.30785" y1="1.63952" x2="2.30785" y2="7.35952" gradientUnits="userSpaceOnUse">
<stop stop-color="#AAAAAA"/>
<stop offset="1" stop-color="white"/>
</linearGradient>
</defs>
</svg>
