<svg width="20" height="20" viewBox="0 0 20 20" fill="none" xmlns="http://www.w3.org/2000/svg">
<g clip-path="url(#clip0_10440_30645)">
<path d="M18.8362 17.7707L14.3394 13.2739C15.5648 11.7752 16.1673 9.86284 16.0223 7.93236C15.8772 6.00188 14.9957 4.201 13.5601 2.90221C12.1245 1.60343 10.2447 0.906119 8.30934 0.954508C6.37402 1.0029 4.53134 1.79329 3.16243 3.16219C1.79353 4.53109 1.00314 6.37378 0.954753 8.30909C0.906364 10.2444 1.60368 12.1243 2.90246 13.5599C4.20124 14.9955 6.00212 15.877 7.9326 16.022C9.86308 16.1671 11.7755 15.5646 13.2742 14.3392L17.7709 18.8359C17.913 18.9731 18.1033 19.0491 18.3008 19.0474C18.4984 19.0456 18.6873 18.9664 18.827 18.8267C18.9667 18.6871 19.0459 18.4981 19.0476 18.3006C19.0493 18.1031 18.9734 17.9128 18.8362 17.7707ZM8.51 14.5365C7.31801 14.5365 6.15279 14.1831 5.16169 13.5209C4.17059 12.8586 3.39812 11.9174 2.94197 10.8161C2.48581 9.71486 2.36646 8.50307 2.59901 7.33399C2.83155 6.1649 3.40555 5.09103 4.24841 4.24817C5.09127 3.40531 6.16515 2.83131 7.33423 2.59876C8.50331 2.36622 9.7151 2.48557 10.8164 2.94172C11.9176 3.39788 12.8589 4.17035 13.5211 5.16145C14.1833 6.15255 14.5368 7.31777 14.5368 8.50975C14.535 10.1076 13.8995 11.6395 12.7696 12.7694C11.6397 13.8992 10.1079 14.5348 8.51 14.5365Z" fill="#5E6773"/>
</g>
<defs>
<clipPath id="clip0_10440_30645">
<rect width="20" height="20" fill="white"/>
</clipPath>
</defs>
</svg>
