<svg width="45" height="10" viewBox="0 0 45 10" fill="none" xmlns="http://www.w3.org/2000/svg">
<path d="M12.91 2.61C12.3771 2.61 11.9698 2.80894 11.688 3.20681C11.4062 3.60467 11.2654 4.14945 11.2654 4.84113C11.2654 5.53893 11.394 6.08064 11.6512 6.46627C11.9146 6.84577 12.3342 7.03552 12.91 7.03552C13.1734 7.03552 13.4398 7.00492 13.7094 6.94371C13.9789 6.8825 14.2698 6.7968 14.5822 6.68662V7.85269C14.2943 7.96899 14.0095 8.05468 13.7277 8.10977C13.446 8.16486 13.1305 8.1924 12.7814 8.1924C12.1015 8.1924 11.5441 8.05468 11.1092 7.77923C10.6743 7.49766 10.3527 7.10592 10.1444 6.60399C9.93616 6.09594 9.83203 5.50526 9.83203 4.83195C9.83203 4.17087 9.95147 3.58631 10.1904 3.07826C10.4292 2.57022 10.7753 2.17235 11.2286 1.88466C11.688 1.59697 12.2485 1.45312 12.91 1.45312C13.2346 1.45312 13.5593 1.49597 13.8839 1.58167C14.2147 1.66124 14.5301 1.77142 14.8303 1.9122L14.3801 3.04154C14.1351 2.92524 13.887 2.82424 13.6358 2.73855C13.3908 2.65285 13.1489 2.61 12.91 2.61Z" fill="white"/>
<path d="M20.4232 5.58484C20.4232 6.4173 20.2027 7.06001 19.7616 7.51297C19.3267 7.96592 18.7326 8.1924 17.9792 8.1924C17.5136 8.1924 17.0971 8.09141 16.7296 7.88941C16.3682 7.68742 16.0834 7.39361 15.8751 7.00798C15.6669 6.61623 15.5627 6.14185 15.5627 5.58484C15.5627 4.75237 15.7802 4.11272 16.2151 3.66589C16.65 3.21905 17.2472 2.99563 18.0067 2.99563C18.4784 2.99563 18.8949 3.09663 19.2563 3.29862C19.6177 3.50062 19.9025 3.79443 20.1108 4.18005C20.319 4.56568 20.4232 5.03394 20.4232 5.58484ZM16.9593 5.58484C16.9593 6.08064 17.0389 6.45709 17.1982 6.71417C17.3636 6.96513 17.63 7.09061 17.9975 7.09061C18.3589 7.09061 18.6193 6.96513 18.7785 6.71417C18.9439 6.45709 19.0266 6.08064 19.0266 5.58484C19.0266 5.08903 18.9439 4.71871 18.7785 4.47386C18.6193 4.2229 18.3559 4.09742 17.9884 4.09742C17.627 4.09742 17.3636 4.2229 17.1982 4.47386C17.0389 4.71871 16.9593 5.08903 16.9593 5.58484Z" fill="white"/>
<path d="M24.3569 2.99563C24.4243 2.99563 24.5039 2.99869 24.5958 3.00481C24.6877 3.01093 24.7612 3.02011 24.8163 3.03236L24.7152 4.31778C24.6662 4.30553 24.6019 4.29635 24.5223 4.29023C24.4427 4.27799 24.3722 4.27187 24.311 4.27187C24.0782 4.27187 23.8546 4.31472 23.6402 4.40041C23.4259 4.47999 23.2513 4.61159 23.1165 4.79522C22.9879 4.97885 22.9236 5.22981 22.9236 5.54811V8.10059H21.5546V3.08745H22.5928L22.795 3.93215H22.8593C23.0063 3.67507 23.2084 3.45471 23.4657 3.27108C23.7229 3.08745 24.02 2.99563 24.3569 2.99563Z" fill="white"/>
<path d="M27.6147 2.99563C28.3068 2.99563 28.8551 3.19456 29.2593 3.59243C29.6636 3.98418 29.8657 4.54426 29.8657 5.27266V5.93374H26.6316C26.6438 6.31936 26.7571 6.62235 26.9715 6.84271C27.192 7.06307 27.4952 7.17325 27.8811 7.17325C28.1996 7.17325 28.4906 7.14264 28.754 7.08143C29.0235 7.0141 29.2991 6.9131 29.5809 6.77844V7.83432C29.3298 7.95674 29.0694 8.0455 28.7999 8.10059C28.5304 8.1618 28.2027 8.1924 27.8168 8.1924C27.3145 8.1924 26.8705 8.10059 26.4846 7.91696C26.0987 7.7272 25.7955 7.44564 25.575 7.07225C25.3544 6.69275 25.2442 6.21224 25.2442 5.63074C25.2442 5.04924 25.3422 4.56262 25.5382 4.17087C25.7403 3.77912 26.019 3.48531 26.3743 3.28944C26.7296 3.09357 27.143 2.99563 27.6147 2.99563ZM27.6239 3.96888C27.3544 3.96888 27.1338 4.05457 26.9623 4.22596C26.7908 4.39735 26.6898 4.66362 26.6591 5.02476H28.5794C28.5733 4.72483 28.4906 4.47386 28.3313 4.27187C28.1782 4.06987 27.9424 3.96888 27.6239 3.96888Z" fill="white"/>
<path d="M35.579 3.08745V8.10059H34.5316L34.3478 7.45788H34.2743C34.115 7.71496 33.8945 7.90165 33.6128 8.01795C33.3371 8.13425 33.0431 8.1924 32.7307 8.1924C32.1917 8.1924 31.7599 8.04856 31.4352 7.76087C31.1106 7.46706 30.9483 6.9988 30.9483 6.35609V3.08745H32.3173V6.01637C32.3173 6.37751 32.3816 6.6499 32.5102 6.83353C32.6388 7.01104 32.844 7.0998 33.1258 7.0998C33.5423 7.0998 33.8272 6.95901 33.9803 6.67744C34.1334 6.38975 34.21 5.97964 34.21 5.44711V3.08745H35.579Z" fill="white"/>
<path d="M42.9039 2.99563C43.4735 2.99563 43.9023 3.14254 44.1902 3.43635C44.4842 3.72404 44.6312 4.18924 44.6312 4.83195V8.10059H43.2622V5.17166C43.2622 4.44938 43.0111 4.08824 42.5088 4.08824C42.1474 4.08824 41.8901 4.21678 41.737 4.47386C41.5839 4.73095 41.5073 5.10127 41.5073 5.58484V8.10059H40.1383V5.17166C40.1383 4.44938 39.8872 4.08824 39.3849 4.08824C39.0051 4.08824 38.7417 4.23208 38.5947 4.51977C38.4538 4.80134 38.3834 5.20839 38.3834 5.74092V8.10059H37.0144V3.08745H38.0618L38.2456 3.73016H38.3191C38.4722 3.47307 38.6805 3.28638 38.9439 3.17008C39.2134 3.05378 39.4921 2.99563 39.78 2.99563C40.1475 2.99563 40.4568 3.05684 40.708 3.17926C40.9652 3.29556 41.1643 3.47919 41.3052 3.73016H41.4246C41.5777 3.47307 41.7891 3.28638 42.0586 3.17008C42.3342 3.05378 42.616 2.99563 42.9039 2.99563Z" fill="white"/>
<path d="M3.17969 3.625C2.95718 3.625 2.73968 3.69098 2.55467 3.8146C2.36967 3.93821 2.22547 4.11391 2.14032 4.31948C2.05517 4.52505 2.0329 4.75125 2.0763 4.96948C2.11971 5.1877 2.22686 5.38816 2.38419 5.54549C2.54153 5.70283 2.74198 5.80997 2.96021 5.85338C3.17844 5.89679 3.40464 5.87451 3.61021 5.78936C3.81577 5.70422 3.99147 5.56002 4.11509 5.37502C4.23871 5.19001 4.30469 4.9725 4.30469 4.75C4.30469 4.45163 4.18616 4.16548 3.97518 3.9545C3.7642 3.74353 3.47806 3.625 3.17969 3.625Z" fill="#25D695"/>
<path d="M3.18206 0.250003C2.591 0.249276 2.00562 0.365331 1.45954 0.591504C0.913466 0.817676 0.417455 1.14951 0 1.56794L1.59187 3.15982C1.90645 2.84492 2.30736 2.6304 2.74388 2.5434C3.1804 2.4564 3.63291 2.50083 4.04418 2.67106C4.45545 2.84129 4.80698 3.12967 5.05431 3.49973C5.30165 3.86979 5.43367 4.3049 5.43367 4.75C5.43367 5.19511 5.30165 5.63021 5.05431 6.00027C4.80698 6.37033 4.45545 6.65872 4.04418 6.82895C3.63291 6.99918 3.1804 7.0436 2.74388 6.9566C2.30736 6.8696 1.90645 6.65508 1.59187 6.34019L0 7.93206C0.523285 8.45532 1.16754 8.84145 1.87569 9.05626C2.58385 9.27106 3.33405 9.3079 4.05985 9.16352C4.78565 9.01915 5.46463 8.698 6.03667 8.22854C6.60872 7.75908 7.05615 7.15578 7.33934 6.4721C7.62254 5.78841 7.73276 5.04544 7.66023 4.30898C7.58771 3.57253 7.33468 2.86533 6.92356 2.25001C6.51244 1.6347 5.95592 1.13028 5.3033 0.781418C4.65067 0.432558 3.92208 0.25003 3.18206 0.250003Z" fill="#25D695"/>
</svg>
