<svg width="7" height="7" viewBox="0 0 7 7" fill="none" xmlns="http://www.w3.org/2000/svg">
<g clip-path="url(#clip0_10467_43788)">
<rect x="0.238281" y="0.388184" width="6.42874" height="6.42874" rx="3.21437" fill="url(#paint0_linear_10467_43788)"/>
<path d="M3.4518 3.09033C3.35008 3.09033 3.25065 3.1205 3.16607 3.17701C3.08149 3.23352 3.01557 3.31384 2.97665 3.40782C2.93772 3.50179 2.92754 3.6052 2.94738 3.70497C2.96723 3.80473 3.01621 3.89637 3.08813 3.9683C3.16006 4.04022 3.2517 4.0892 3.35146 4.10905C3.45123 4.12889 3.55464 4.11871 3.64861 4.07978C3.74259 4.04086 3.82291 3.97494 3.87942 3.89036C3.93594 3.80578 3.9661 3.70635 3.9661 3.60463C3.9661 3.46823 3.91191 3.33742 3.81546 3.24097C3.71901 3.14452 3.5882 3.09033 3.4518 3.09033Z" fill="white"/>
<path d="M3.45079 1.54639C3.18058 1.54606 2.91297 1.59911 2.66333 1.70251C2.41369 1.8059 2.18694 1.9576 1.99609 2.14889L2.72383 2.87662C2.86764 2.73267 3.05091 2.6346 3.25047 2.59483C3.45003 2.55505 3.6569 2.57536 3.84491 2.65318C4.03292 2.73101 4.19363 2.86284 4.3067 3.03202C4.41977 3.20119 4.48012 3.4001 4.48012 3.60358C4.48012 3.80707 4.41977 4.00598 4.3067 4.17515C4.19363 4.34432 4.03292 4.47616 3.84491 4.55398C3.6569 4.63181 3.45003 4.65211 3.25047 4.61234C3.05091 4.57257 2.86764 4.4745 2.72383 4.33055L1.99609 5.05828C2.23532 5.29749 2.52984 5.47401 2.85358 5.57221C3.17731 5.67041 3.52027 5.68725 3.85207 5.62125C4.18387 5.55524 4.49428 5.40843 4.75579 5.19381C5.0173 4.9792 5.22185 4.7034 5.35131 4.39085C5.48077 4.0783 5.53116 3.73864 5.49801 3.40197C5.46485 3.0653 5.34918 2.742 5.16123 2.4607C4.97329 2.17941 4.71887 1.94881 4.42052 1.78933C4.12217 1.62984 3.78909 1.5464 3.45079 1.54639Z" fill="white"/>
</g>
<defs>
<linearGradient id="paint0_linear_10467_43788" x1="6.66702" y1="0.388184" x2="0.238281" y2="6.81692" gradientUnits="userSpaceOnUse">
<stop stop-color="#25D695"/>
<stop offset="1" stop-color="#179B69"/>
</linearGradient>
<clipPath id="clip0_10467_43788">
<rect width="6.42874" height="6.42874" fill="white" transform="translate(0.238281 0.383789)"/>
</clipPath>
</defs>
</svg>
